<svg width="22" height="22" viewBox="0 0 22 22" fill="none" xmlns="http://www.w3.org/2000/svg">
<path d="M14.3079 13.188L12.1669 15.3C11.0504 14.6269 10.0132 13.8302 9.07489 12.925C8.17114 11.9852 7.37459 10.9478 6.69989 9.83205L8.80989 7.69105C8.93769 7.56128 9.02399 7.39642 9.05782 7.21746C9.09166 7.0385 9.07149 6.85352 8.99989 6.68605L6.79989 1.55805C6.71298 1.35585 6.55632 1.1916 6.35845 1.09524C6.16058 0.998872 5.93467 0.976803 5.72189 1.03305L1.68789 2.10005C1.48644 2.15227 1.30868 2.27133 1.1837 2.43773C1.05871 2.60413 0.993911 2.80803 0.999891 3.01605C1.25657 7.70782 3.20734 12.147 6.48989 15.5091C9.85257 18.7926 14.2929 20.7438 18.9859 21C19.1941 21.007 19.3985 20.9428 19.5652 20.8179C19.732 20.6929 19.8511 20.5149 19.9029 20.313L20.9689 16.2771C21.0254 16.0644 21.0036 15.8385 20.9074 15.6406C20.8112 15.4427 20.647 15.286 20.4449 15.199L15.3159 13C15.1483 12.9274 14.9628 12.9065 14.7832 12.94C14.6036 12.9735 14.4381 13.0599 14.3079 13.188V13.188Z" stroke="#00AFD0" stroke-width="2" stroke-miterlimit="10" stroke-linecap="square"/>
</svg>