<svg width="24" height="26" viewBox="0 0 24 26" fill="none" xmlns="http://www.w3.org/2000/svg">
<mask id="path-1-outside-1" maskUnits="userSpaceOnUse" x="2" y="0" width="21" height="26" fill="black">
<rect fill="white" x="2" width="21" height="26"/>
<path fillRule="evenodd" clipRule="evenodd" d="M20.6842 16.1579V14.6737C20.6842 14.0623 20.4413 13.4759 20.009 13.0436C19.5767 12.6113 18.9903 12.3684 18.3789 12.3684H18.1579V2.78105C18.1562 2.3092 17.9681 1.85715 17.6344 1.5235C17.3007 1.18984 16.8487 1.00166 16.3768 1H16.1558C15.6828 0.999997 15.2292 1.18744 14.8942 1.52127C14.5591 1.85511 14.3701 2.30811 14.3684 2.78105V12.3684H14.1474C13.536 12.3684 12.9496 12.6113 12.5173 13.0436C12.085 13.4759 11.8421 14.0623 11.8421 14.6737V15.4884L11.0968 17.2884C10.5284 18.6716 9.8779 20.0484 9.17053 21.3874L7.90737 23.7368H3V25H21.1705L21.3158 24.5768C21.7949 23.2055 21.9861 21.7501 21.8774 20.3015C21.7687 18.853 21.3625 17.4424 20.6842 16.1579ZM15.6316 2.78105C15.6316 2.6437 15.6861 2.51197 15.7833 2.41485C15.8804 2.31772 16.0121 2.26316 16.1495 2.26316H16.3705C16.5079 2.26316 16.6396 2.31772 16.7367 2.41485C16.8339 2.51197 16.8884 2.6437 16.8884 2.78105V12.3684H15.6316V2.78105ZM13.1053 14.6737C13.1053 14.3973 13.2151 14.1322 13.4105 13.9368C13.6059 13.7414 13.871 13.6316 14.1474 13.6316H18.3789C18.6553 13.6316 18.9204 13.7414 19.1158 13.9368C19.3113 14.1322 19.4211 14.3973 19.4211 14.6737V14.8947H13.1053V14.6737ZM20.2611 23.7368H17.64C18.122 22.1631 18.3897 20.5316 18.4358 18.8863H17.1726C17.1127 20.5352 16.8236 22.1677 16.3137 23.7368H13.5347C14.3435 22.2168 14.9609 20.6024 15.3726 18.9305L14.1474 18.6211C13.7129 20.4191 13.0148 22.1431 12.0758 23.7368H9.35368L10.2884 21.9747C11.0147 20.6042 11.6842 19.1895 12.2653 17.7684L12.9347 16.1579H19.2505L19.5095 16.6379C20.6913 18.811 20.9617 21.3645 20.2611 23.7368ZM6.78949 20.5791H3.63159V21.8423H6.78949V20.5791ZM5.52612 18.0522H8.68402V19.3154H5.52612V18.0522Z"/>
</mask>
<path fillRule="evenodd" clipRule="evenodd" d="M20.6842 16.1579V14.6737C20.6842 14.0623 20.4413 13.4759 20.009 13.0436C19.5767 12.6113 18.9903 12.3684 18.3789 12.3684H18.1579V2.78105C18.1562 2.3092 17.9681 1.85715 17.6344 1.5235C17.3007 1.18984 16.8487 1.00166 16.3768 1H16.1558C15.6828 0.999997 15.2292 1.18744 14.8942 1.52127C14.5591 1.85511 14.3701 2.30811 14.3684 2.78105V12.3684H14.1474C13.536 12.3684 12.9496 12.6113 12.5173 13.0436C12.085 13.4759 11.8421 14.0623 11.8421 14.6737V15.4884L11.0968 17.2884C10.5284 18.6716 9.8779 20.0484 9.17053 21.3874L7.90737 23.7368H3V25H21.1705L21.3158 24.5768C21.7949 23.2055 21.9861 21.7501 21.8774 20.3015C21.7687 18.853 21.3625 17.4424 20.6842 16.1579ZM15.6316 2.78105C15.6316 2.6437 15.6861 2.51197 15.7833 2.41485C15.8804 2.31772 16.0121 2.26316 16.1495 2.26316H16.3705C16.5079 2.26316 16.6396 2.31772 16.7367 2.41485C16.8339 2.51197 16.8884 2.6437 16.8884 2.78105V12.3684H15.6316V2.78105ZM13.1053 14.6737C13.1053 14.3973 13.2151 14.1322 13.4105 13.9368C13.6059 13.7414 13.871 13.6316 14.1474 13.6316H18.3789C18.6553 13.6316 18.9204 13.7414 19.1158 13.9368C19.3113 14.1322 19.4211 14.3973 19.4211 14.6737V14.8947H13.1053V14.6737ZM20.2611 23.7368H17.64C18.122 22.1631 18.3897 20.5316 18.4358 18.8863H17.1726C17.1127 20.5352 16.8236 22.1677 16.3137 23.7368H13.5347C14.3435 22.2168 14.9609 20.6024 15.3726 18.9305L14.1474 18.6211C13.7129 20.4191 13.0148 22.1431 12.0758 23.7368H9.35368L10.2884 21.9747C11.0147 20.6042 11.6842 19.1895 12.2653 17.7684L12.9347 16.1579H19.2505L19.5095 16.6379C20.6913 18.811 20.9617 21.3645 20.2611 23.7368ZM6.78949 20.5791H3.63159V21.8423H6.78949V20.5791ZM5.52612 18.0522H8.68402V19.3154H5.52612V18.0522Z" fill="#00AFD0"/>
<path d="M20.6842 16.1579H20.4842C20.4842 16.1904 20.4922 16.2225 20.5074 16.2513L20.6842 16.1579ZM20.009 13.0436L19.8676 13.185H19.8676L20.009 13.0436ZM18.1579 12.3684H17.9579C17.9579 12.4789 18.0474 12.5684 18.1579 12.5684V12.3684ZM18.1579 2.78105H18.3579L18.3579 2.78035L18.1579 2.78105ZM17.6344 1.5235L17.7758 1.38208V1.38208L17.6344 1.5235ZM16.3768 1L16.3775 0.8H16.3768V1ZM16.1558 1L16.1558 1.2H16.1558V1ZM14.8942 1.52127L15.0353 1.66294V1.66294L14.8942 1.52127ZM14.3684 2.78105L14.1684 2.78035V2.78105H14.3684ZM14.3684 12.3684V12.5684C14.4789 12.5684 14.5684 12.4789 14.5684 12.3684H14.3684ZM12.5173 13.0436L12.6587 13.185L12.5173 13.0436ZM11.8421 15.4884L12.0269 15.5649C12.0369 15.5407 12.0421 15.5147 12.0421 15.4884H11.8421ZM11.0968 17.2884L10.9121 17.2119L10.9119 17.2124L11.0968 17.2884ZM9.17053 21.3874L9.34669 21.4821L9.34737 21.4808L9.17053 21.3874ZM7.90737 23.7368V23.9368C7.98099 23.9368 8.04866 23.8964 8.08352 23.8315L7.90737 23.7368ZM3 23.7368V23.5368C2.88954 23.5368 2.8 23.6264 2.8 23.7368H3ZM3 25H2.8C2.8 25.1105 2.88954 25.2 3 25.2V25ZM21.1705 25V25.2C21.256 25.2 21.332 25.1457 21.3597 25.0649L21.1705 25ZM21.3158 24.5768L21.127 24.5109L21.1266 24.5119L21.3158 24.5768ZM21.8774 20.3015L21.6779 20.3165L21.8774 20.3015ZM16.8884 12.3684V12.5684C16.9989 12.5684 17.0884 12.4789 17.0884 12.3684H16.8884ZM15.6316 12.3684H15.4316C15.4316 12.4789 15.5211 12.5684 15.6316 12.5684V12.3684ZM19.1158 13.9368L19.2573 13.7954H19.2572L19.1158 13.9368ZM19.4211 14.8947V15.0947C19.5315 15.0947 19.6211 15.0052 19.6211 14.8947H19.4211ZM13.1053 14.8947H12.9053C12.9053 15.0052 12.9948 15.0947 13.1053 15.0947V14.8947ZM17.64 23.7368L17.4488 23.6783C17.4302 23.7389 17.4415 23.8048 17.4792 23.8558C17.5169 23.9068 17.5766 23.9368 17.64 23.9368V23.7368ZM20.2611 23.7368V23.9368C20.3497 23.9368 20.4278 23.8785 20.4529 23.7935L20.2611 23.7368ZM18.4358 18.8863L18.6357 18.8919C18.6372 18.8379 18.6168 18.7856 18.5792 18.7469C18.5415 18.7082 18.4898 18.6863 18.4358 18.6863V18.8863ZM17.1726 18.8863V18.6863C17.065 18.6863 16.9767 18.7715 16.9728 18.879L17.1726 18.8863ZM16.3137 23.7368V23.9368C16.4003 23.9368 16.4771 23.8811 16.5039 23.7987L16.3137 23.7368ZM13.5347 23.7368L13.3582 23.6429C13.3252 23.7049 13.3271 23.7796 13.3633 23.8398C13.3994 23.9 13.4645 23.9368 13.5347 23.9368V23.7368ZM15.3726 18.9305L15.5668 18.9784C15.5931 18.8715 15.5283 18.7635 15.4216 18.7366L15.3726 18.9305ZM14.1474 18.6211L14.1963 18.4271C14.1446 18.4141 14.0897 18.4222 14.044 18.4498C13.9983 18.4774 13.9655 18.5222 13.953 18.5741L14.1474 18.6211ZM12.0758 23.7368V23.9368C12.1466 23.9368 12.2122 23.8994 12.2481 23.8384L12.0758 23.7368ZM9.35368 23.7368L9.177 23.6431C9.14412 23.7051 9.14613 23.7798 9.1823 23.8399C9.21847 23.9001 9.28351 23.9368 9.35368 23.9368V23.7368ZM10.2884 21.9747L10.4651 22.0685L10.4651 22.0684L10.2884 21.9747ZM12.2653 17.7684L12.0806 17.6916L12.0801 17.6927L12.2653 17.7684ZM12.9347 16.1579V15.9579C12.8539 15.9579 12.7811 16.0065 12.7501 16.0811L12.9347 16.1579ZM19.2505 16.1579L19.4265 16.0629C19.3916 15.9982 19.324 15.9579 19.2505 15.9579V16.1579ZM19.5095 16.6379L19.3335 16.7329L19.3338 16.7334L19.5095 16.6379ZM3.63159 20.5791V20.3791C3.52113 20.3791 3.43159 20.4686 3.43159 20.5791H3.63159ZM6.78949 20.5791H6.98949C6.98949 20.4686 6.89994 20.3791 6.78949 20.3791V20.5791ZM3.63159 21.8423H3.43159C3.43159 21.9527 3.52113 22.0423 3.63159 22.0423V21.8423ZM6.78949 21.8423V22.0423C6.89994 22.0423 6.98949 21.9527 6.98949 21.8423H6.78949ZM8.68402 18.0522H8.88402C8.88402 17.9418 8.79447 17.8522 8.68402 17.8522V18.0522ZM5.52612 18.0522V17.8522C5.41567 17.8522 5.32612 17.9418 5.32612 18.0522H5.52612ZM8.68402 19.3154V19.5154C8.79447 19.5154 8.88402 19.4259 8.88402 19.3154H8.68402ZM5.52612 19.3154H5.32612C5.32612 19.4259 5.41567 19.5154 5.52612 19.5154V19.3154ZM20.4842 14.6737V16.1579H20.8842V14.6737H20.4842ZM19.8676 13.185C20.2624 13.5799 20.4842 14.1153 20.4842 14.6737H20.8842C20.8842 14.0092 20.6203 13.372 20.1504 12.9022L19.8676 13.185ZM18.3789 12.5684C18.9373 12.5684 19.4728 12.7902 19.8676 13.185L20.1504 12.9022C19.6806 12.4324 19.0434 12.1684 18.3789 12.1684V12.5684ZM18.1579 12.5684H18.3789V12.1684H18.1579V12.5684ZM17.9579 2.78105V12.3684H18.3579V2.78105H17.9579ZM17.493 1.66492C17.7893 1.96124 17.9564 2.3627 17.9579 2.78176L18.3579 2.78035C18.356 2.2557 18.1468 1.75306 17.7758 1.38208L17.493 1.66492ZM16.3761 1.2C16.7952 1.20148 17.1967 1.3686 17.493 1.66492L17.7758 1.38208C17.4048 1.01109 16.9022 0.801852 16.3775 0.800001L16.3761 1.2ZM16.1558 1.2H16.3768V0.8H16.1558V1.2ZM15.0353 1.66294C15.3329 1.36647 15.7358 1.2 16.1558 1.2L16.1558 0.8C15.6299 0.799997 15.1255 1.00842 14.753 1.3796L15.0353 1.66294ZM14.5684 2.78176C14.5699 2.36174 14.7378 1.95942 15.0353 1.66294L14.753 1.3796C14.3805 1.75079 14.1703 2.25448 14.1684 2.78035L14.5684 2.78176ZM14.5684 12.3684V2.78105H14.1684V12.3684H14.5684ZM14.1474 12.5684H14.3684V12.1684H14.1474V12.5684ZM12.6587 13.185C13.0535 12.7902 13.589 12.5684 14.1474 12.5684V12.1684C13.4829 12.1684 12.8457 12.4324 12.3759 12.9022L12.6587 13.185ZM12.0421 14.6737C12.0421 14.1153 12.2639 13.5799 12.6587 13.185L12.3759 12.9022C11.9061 13.372 11.6421 14.0092 11.6421 14.6737H12.0421ZM12.0421 15.4884V14.6737H11.6421V15.4884H12.0421ZM11.2816 17.3649L12.0269 15.5649L11.6573 15.4119L10.9121 17.2119L11.2816 17.3649ZM9.34737 21.4808C10.0575 20.1366 10.7108 18.754 11.2818 17.3644L10.9119 17.2124C10.3461 18.5892 9.6983 19.9602 8.99369 21.2939L9.34737 21.4808ZM8.08352 23.8315L9.34668 21.4821L8.99437 21.2927L7.73121 23.6421L8.08352 23.8315ZM3 23.9368H7.90737V23.5368H3V23.9368ZM3.2 25V23.7368H2.8V25H3.2ZM21.1705 24.8H3V25.2H21.1705V24.8ZM21.1266 24.5119L20.9814 24.9351L21.3597 25.0649L21.505 24.6418L21.1266 24.5119ZM21.6779 20.3165C21.7846 21.7376 21.597 23.1655 21.127 24.5109L21.5046 24.6428C21.9928 23.2455 22.1875 21.7626 22.0768 20.2866L21.6779 20.3165ZM20.5074 16.2513C21.1728 17.5115 21.5713 18.8954 21.6779 20.3165L22.0768 20.2866C21.9661 18.8106 21.5522 17.3733 20.8611 16.0645L20.5074 16.2513ZM15.6418 2.27342C15.5072 2.40806 15.4316 2.59065 15.4316 2.78105H15.8316C15.8316 2.69674 15.8651 2.61588 15.9247 2.55627L15.6418 2.27342ZM16.1495 2.06316C15.9591 2.06316 15.7765 2.13879 15.6418 2.27342L15.9247 2.55627C15.9843 2.49665 16.0652 2.46316 16.1495 2.46316V2.06316ZM16.3705 2.06316H16.1495V2.46316H16.3705V2.06316ZM16.8782 2.27342C16.7435 2.13879 16.5609 2.06316 16.3705 2.06316V2.46316C16.4548 2.46316 16.5357 2.49665 16.5953 2.55627L16.8782 2.27342ZM17.0884 2.78105C17.0884 2.59066 17.0128 2.40806 16.8782 2.27342L16.5953 2.55627C16.6549 2.61588 16.6884 2.69674 16.6884 2.78105H17.0884ZM17.0884 12.3684V2.78105H16.6884V12.3684H17.0884ZM15.6316 12.5684H16.8884V12.1684H15.6316V12.5684ZM15.4316 2.78105V12.3684H15.8316V2.78105H15.4316ZM13.2691 13.7954C13.0361 14.0283 12.9053 14.3443 12.9053 14.6737H13.3053C13.3053 14.4503 13.394 14.2362 13.5519 14.0782L13.2691 13.7954ZM14.1474 13.4316C13.8179 13.4316 13.502 13.5624 13.2691 13.7954L13.5519 14.0782C13.7098 13.9203 13.924 13.8316 14.1474 13.8316V13.4316ZM18.3789 13.4316H14.1474V13.8316H18.3789V13.4316ZM19.2572 13.7954C19.0243 13.5624 18.7084 13.4316 18.3789 13.4316V13.8316C18.6023 13.8316 18.8165 13.9203 18.9744 14.0782L19.2572 13.7954ZM19.6211 14.6737C19.6211 14.3443 19.4902 14.0283 19.2573 13.7954L18.9744 14.0782C19.1323 14.2362 19.2211 14.4503 19.2211 14.6737H19.6211ZM19.6211 14.8947V14.6737H19.2211V14.8947H19.6211ZM13.1053 15.0947H19.4211V14.6947H13.1053V15.0947ZM12.9053 14.6737V14.8947H13.3053V14.6737H12.9053ZM17.64 23.9368H20.2611V23.5368H17.64V23.9368ZM18.2359 18.8807C18.1903 20.508 17.9255 22.1217 17.4488 23.6783L17.8312 23.7954C18.3185 22.2045 18.5891 20.5551 18.6357 18.8919L18.2359 18.8807ZM17.1726 19.0863H18.4358V18.6863H17.1726V19.0863ZM16.5039 23.7987C17.0196 22.2118 17.3119 20.561 17.3725 18.8936L16.9728 18.879C16.9135 20.5094 16.6277 22.1235 16.1235 23.675L16.5039 23.7987ZM13.5347 23.9368H16.3137V23.5368H13.5347V23.9368ZM15.1784 18.8827C14.7706 20.5385 14.1592 22.1374 13.3582 23.6429L13.7113 23.8308C14.5279 22.2962 15.1511 20.6663 15.5668 18.9784L15.1784 18.8827ZM14.0984 18.815L15.3237 19.1244L15.4216 18.7366L14.1963 18.4271L14.0984 18.815ZM12.2481 23.8384C13.1971 22.2276 13.9026 20.4853 14.3418 18.668L13.953 18.5741C13.5231 20.353 12.8325 22.0585 11.9035 23.6353L12.2481 23.8384ZM9.35368 23.9368H12.0758V23.5368H9.35368V23.9368ZM10.1117 21.881L9.177 23.6431L9.53036 23.8306L10.4651 22.0685L10.1117 21.881ZM12.0801 17.6927C11.5018 19.1071 10.8352 20.5159 10.1117 21.8811L10.4651 22.0684C11.1943 20.6926 11.8666 19.2718 12.4504 17.8441L12.0801 17.6927ZM12.7501 16.0811L12.0806 17.6917L12.4499 17.8452L13.1194 16.2347L12.7501 16.0811ZM19.2505 15.9579H12.9347V16.3579H19.2505V15.9579ZM19.6855 16.5429L19.4265 16.0629L19.0745 16.2529L19.3335 16.7329L19.6855 16.5429ZM20.4529 23.7935C21.1685 21.3703 20.8924 18.762 19.6852 16.5423L19.3338 16.7334C20.4903 18.8599 20.7548 21.3587 20.0692 23.6802L20.4529 23.7935ZM3.63159 20.7791H6.78949V20.3791H3.63159V20.7791ZM3.83159 21.8423V20.5791H3.43159V21.8423H3.83159ZM6.78949 21.6423H3.63159V22.0423H6.78949V21.6423ZM6.58949 20.5791V21.8423H6.98949V20.5791H6.58949ZM8.68402 17.8522H5.52612V18.2522H8.68402V17.8522ZM8.88402 19.3154V18.0522H8.48402V19.3154H8.88402ZM5.52612 19.5154H8.68402V19.1154H5.52612V19.5154ZM5.32612 18.0522V19.3154H5.72612V18.0522H5.32612Z" fill="#00AFD0" mask="url(#path-1-outside-1)"/>
</svg>
