<svg width="24" height="24" viewBox="0 0 24 24" fill="none" xmlns="http://www.w3.org/2000/svg">
<path d="M12 2V18" stroke="#00AFD0" stroke-width="2" stroke-miterlimit="10"/>
<path d="M7 18H17.03" stroke="#00AFD0" stroke-width="2" stroke-miterlimit="10"/>
<path d="M2 13.993L5.973 14" stroke="#00AFD0" stroke-width="2" stroke-miterlimit="10"/>
<path d="M22 13.993L18.027 14" stroke="#00AFD0" stroke-width="2" stroke-miterlimit="10"/>
<path d="M14 2C13.9994 6.17152 15.3107 10.2333 17.7417 13.6133C17.9191 13.8599 17.9836 14.1714 17.909 14.4658L16.3156 20.7544C16.1555 21.3863 16.6331 22 17.285 22H21C21.5523 22 22 21.5523 22 21V3C22 2.44772 21.5523 2 21 2H3C2.44772 2 2 2.44772 2 3V21C2 21.5523 2.44772 22 3 22H6.71502C7.36691 22 7.8445 21.3863 7.68439 20.7544L6.09101 14.4658C6.01642 14.1714 6.08094 13.8599 6.25827 13.6133C8.68931 10.2333 10.0006 6.17152 10 2" stroke="#00AFD0" stroke-width="2" stroke-miterlimit="10" stroke-linecap="square"/>
</svg>
