<svg width="16" height="16" viewBox="0 0 16 16" fill="none" xmlns="http://www.w3.org/2000/svg">
<path d="M0.5 15.5L2.5 9.5H13.5L15.5 15.5H0.5Z" stroke="#124E78" stroke-linecap="round" stroke-linejoin="round"/>
<path d="M10.0586 7.56498L11.5336 4.97098C11.7818 5.1129 12.0612 5.19143 12.347 5.19963C12.6327 5.20784 12.9161 5.14545 13.172 5.01801C13.428 4.89056 13.6485 4.70198 13.8142 4.46897C13.9798 4.23595 14.0855 3.96569 14.1218 3.68211C14.1581 3.39852 14.1239 3.11036 14.0222 2.84314C13.9206 2.57592 13.7547 2.33788 13.5391 2.15009C13.3235 1.9623 13.065 1.83056 12.7863 1.76653C12.5077 1.70249 12.2176 1.70815 11.9416 1.78298C11.8665 1.50708 11.7245 1.25396 11.5282 1.04604C11.3319 0.838118 11.0874 0.681811 10.8162 0.59096C10.5451 0.50011 10.2557 0.47752 9.9738 0.525192C9.69186 0.572863 9.42602 0.689325 9.19983 0.864262C8.97364 1.0392 8.79407 1.26722 8.67704 1.52812C8.56001 1.78902 8.50912 2.07475 8.52888 2.36002C8.54863 2.64528 8.63843 2.92127 8.79032 3.16354C8.9422 3.40582 9.15148 3.6069 9.39963 3.74899L7.22363 7.56498" stroke="#124E78" stroke-linecap="round" stroke-linejoin="round"/>
</svg>