<svg width="76" height="76" viewBox="0 0 76 76" fill="none" xmlns="http://www.w3.org/2000/svg">
<g clip-path="url(#clip0)">
<path d="M76 38.3288C76 56.5901 61.1961 71.394 42.9348 71.394C24.6735 71.394 9.87012 56.5901 9.87012 38.3288C9.87012 20.0675 24.6735 5.2641 42.9348 5.2641C61.1961 5.2641 76 20.0675 76 38.3288Z" fill="#DDF9FF"/>
<path d="M50.7165 20.7587L33.0275 38.4477L25.2844 30.7046L16.8872 39.1017L24.6303 46.8448L33.0275 55.2414L59.113 29.1558L50.7165 20.7587Z" fill="white"/>
<path d="M33.0275 56.7258C32.6338 56.7258 32.2563 56.5692 31.978 56.2909L15.8377 40.1512C15.2579 39.5714 15.2579 38.6315 15.8377 38.0516L24.2343 29.6551C24.8141 29.0752 25.754 29.0752 26.3339 29.6551L33.0275 36.3487L49.6664 19.7092C49.9447 19.4308 50.3228 19.2743 50.7165 19.2743C51.1096 19.2743 51.4876 19.4308 51.766 19.7092L60.1625 28.1063C60.7424 28.6856 60.7424 29.6255 60.1625 30.2053L34.077 56.2915C33.7986 56.5698 33.4212 56.7258 33.0275 56.7258ZM18.9868 39.1017L33.0275 53.1424L57.014 29.1558L50.7165 22.8577L34.077 39.4972C33.4971 40.077 32.5572 40.077 31.978 39.4972L25.2844 32.8036L18.9868 39.1017Z" fill="#124E78"/>
<path d="M37.9907 76C37.0212 76 36.0506 75.9629 35.0782 75.8887C26.0479 75.1964 17.5429 71.2831 11.1299 64.8707C3.95273 57.6929 0 48.1506 0 38C0 27.85 3.95273 18.3071 11.1299 11.1299C18.3071 3.95273 27.85 0 38 0C48.1506 0 57.6929 3.95273 64.8707 11.1299C71.2831 17.5429 75.1964 26.0479 75.8887 35.0782C76.5735 44.0106 74.086 52.9139 68.8849 60.1491C68.4065 60.8147 67.4788 60.9661 66.8131 60.4877C66.1475 60.0093 65.9961 59.0816 66.4745 58.416C76.5276 44.4321 74.9702 25.4286 62.7711 13.2289C49.1125 -0.429657 26.8881 -0.429657 13.2295 13.2289C-0.429657 26.8881 -0.429657 49.1119 13.2295 62.7711C25.4286 74.9696 44.4327 76.5276 58.4165 66.4739C59.0822 65.9955 60.0093 66.1475 60.4883 66.8131C60.9666 67.4788 60.8147 68.4059 60.1491 68.8849C53.7013 73.5201 45.9281 76 37.9907 76Z" fill="#124E78"/>
<path d="M63.8213 65.3055C63.4305 65.3055 63.0478 65.1467 62.7718 64.8707C62.4958 64.5941 62.3369 64.2114 62.3369 63.8212C62.3369 63.4304 62.4958 63.0477 62.7718 62.7717C63.0478 62.4957 63.4305 62.3368 63.8213 62.3368C64.2115 62.3368 64.5942 62.4957 64.8708 62.7717C65.1468 63.0477 65.3057 63.4304 65.3057 63.8212C65.3057 64.2114 65.1468 64.5941 64.8708 64.8707C64.5942 65.1467 64.2115 65.3055 63.8213 65.3055Z" fill="#124E78"/>
</g>
<defs>
<clipPath id="clip0">
<rect width="76" height="76" fill="white"/>
</clipPath>
</defs>
</svg>
