<svg width="72" height="72" viewBox="0 0 72 72" fill="none" xmlns="http://www.w3.org/2000/svg">
<g clip-path="url(#clip0)">
<path d="M35.205 8.38511H12.9094C10.3916 8.38511 8.35059 10.4262 8.35059 12.9439V59.9854C8.35059 62.5032 10.3916 64.5443 12.9094 64.5443H35.205C37.7227 64.5443 39.7638 62.5032 39.7638 59.9854V12.9439C39.7638 10.4262 37.7227 8.38511 35.205 8.38511Z" fill="#DDF9FF"/>
<path d="M36.4144 50.1567C32.933 52.961 28.1637 53.392 25.2369 53.3472C24.8083 53.3401 24.4238 53.0819 24.2551 52.6877C24.0865 52.2936 24.165 51.8372 24.4557 51.5222C25.6526 50.0692 26.4767 48.3461 26.8562 46.5024C27.038 45.7317 26.7816 44.9234 26.1888 44.3984C22.6176 41.4844 20.5056 37.1496 20.4119 32.5414C20.4119 22.8694 30.2042 15.0355 42.2942 15.0355C54.3843 15.0355 64.1767 22.8694 64.1767 32.5414C64.1767 42.2134 54.3843 50.0473 42.2942 50.0473C40.9083 50.0471 39.5244 49.9428 38.1541 49.7355C37.5408 49.6261 36.9098 49.7789 36.4144 50.1567Z" fill="#DDF9FF"/>
<path d="M5.09412 46.7652C5.69839 46.7652 6.18824 46.2753 6.18824 45.6711C6.18824 45.0668 5.69839 44.577 5.09412 44.577C4.48985 44.577 4 45.0668 4 45.6711C4 46.2753 4.48985 46.7652 5.09412 46.7652Z" fill="#124E78"/>
<path d="M43.3883 64.2709V54.4239C43.3883 53.8197 42.8984 53.3298 42.2942 53.3298C41.6899 53.3298 41.2001 53.8197 41.2001 54.4239V58.8004C41.2001 60.0089 40.2204 60.9886 39.0119 60.9886H8.37648C7.16794 60.9886 6.18824 60.0089 6.18824 58.8004V50.0474C6.18824 49.4431 5.69839 48.9533 5.09412 48.9533C4.48985 48.9533 4 49.4431 4 50.0474V64.2709C4 66.688 5.95942 68.6474 8.37648 68.6474H39.0119C41.4289 68.6474 43.3883 66.688 43.3883 64.2709ZM39.0119 66.4592H8.37648C7.16794 66.4592 6.18824 65.4795 6.18824 64.2709V62.5685C6.85056 62.9623 7.60594 63.1723 8.37648 63.1768H39.0119C39.7824 63.1723 40.5378 62.9623 41.2001 62.5685V64.2709C41.2001 65.4795 40.2204 66.4592 39.0119 66.4592Z" fill="#124E78"/>
<path d="M43.3883 13.986V7.37648C43.3883 4.95942 41.4289 3 39.0119 3H8.37648C5.95942 3 4 4.95942 4 7.37648V41.2942C4 41.8984 4.48985 42.3883 5.09412 42.3883C5.69838 42.3883 6.18824 41.8984 6.18824 41.2942V7.37648C6.18824 6.16794 7.16794 5.18824 8.37648 5.18824H12.2792L15.0845 8.18066C15.9129 9.06231 17.0685 9.56306 18.2782 9.56471H29.11C30.3198 9.56306 31.4753 9.06231 32.3038 8.18066L35.1091 5.18824H39.0119C40.2204 5.18824 41.2001 6.16794 41.2001 7.37648V13.986C29.04 14.4532 19.3176 22.5847 19.3176 32.5413C19.4095 37.4655 21.6592 42.101 25.471 45.2199C25.7572 45.4806 25.8795 45.876 25.7904 46.2527C25.4517 47.9236 24.7086 49.486 23.6263 50.8032C23.0552 51.4524 22.9162 52.3756 23.2707 53.1643C23.6158 53.9359 24.3807 54.4341 25.2259 54.4378H25.6406C29.0214 54.4378 33.6146 53.8142 37.1059 51.0001C37.3648 50.8197 37.6858 50.7521 37.9954 50.813C39.4181 51.0298 40.8551 51.1395 42.2942 51.1413C54.963 51.1413 65.2707 42.7975 65.2707 32.5413C65.2707 22.5847 55.5473 14.4532 43.3883 13.986ZM30.7075 6.685C30.2929 7.12559 29.715 7.37575 29.11 7.37648H18.2782C17.6735 7.37649 17.0956 7.12618 16.6819 6.685L15.2793 5.18824H32.1102L30.7075 6.685ZM42.2942 48.953C40.9632 48.9527 39.6342 48.8528 38.3182 48.6543C37.403 48.4969 36.4639 48.7307 35.7295 49.2988C32.4362 51.9531 27.7566 52.2857 25.2861 52.231C26.601 50.6439 27.5071 48.7589 27.9251 46.7407C28.1982 45.576 27.8065 44.3557 26.9064 43.5678C23.577 40.8616 21.6027 36.8307 21.5059 32.5413C21.5059 23.4917 30.8311 16.1294 42.2942 16.1294C53.7573 16.1294 63.0824 23.4917 63.0824 32.5413C63.0824 41.5907 53.7573 48.953 42.2942 48.953Z" fill="#124E78"/>
<path d="M9.46961 15.0357C10.0739 15.0357 10.5637 14.5458 10.5637 13.9415V11.7533C10.5637 11.149 10.0739 10.6592 9.46961 10.6592C8.86534 10.6592 8.37549 11.149 8.37549 11.7533V13.9415C8.37549 14.5458 8.86534 15.0357 9.46961 15.0357Z" fill="#124E78"/>
<path d="M8.37549 35.8241C8.37549 36.4284 8.86534 36.9182 9.46961 36.9182C10.0739 36.9182 10.5637 36.4284 10.5637 35.8241V18.3182C10.5637 17.7139 10.0739 17.2241 9.46961 17.2241C8.86534 17.2241 8.37549 17.7139 8.37549 18.3182V35.8241Z" fill="#124E78"/>
<path d="M52.6007 20.6986C52.2511 20.507 51.8249 20.5207 51.4883 20.7345C51.1517 20.9482 50.958 21.328 50.9828 21.7259C51.0075 22.1239 51.2468 22.4768 51.6072 22.6473C56.0526 24.9121 58.7058 28.6113 58.7058 32.5425C58.7058 33.1467 59.1957 33.6366 59.8 33.6366C60.4043 33.6366 60.8941 33.1467 60.8941 32.5425C60.8941 27.7721 57.7934 23.3442 52.6007 20.6986Z" fill="#124E78"/>
<path d="M49.9541 34.9308V30.353C49.9494 27.3643 48.2076 24.6509 45.4923 23.4021C45.7988 22.084 45.2651 20.7129 44.148 19.9491C43.031 19.1852 41.5596 19.1852 40.4425 19.9491C39.3255 20.7129 38.7917 22.084 39.0983 23.4021C36.383 24.6509 34.6412 27.3643 34.6365 30.353V34.9308C33.3297 35.3928 32.454 36.6259 32.4482 38.0118V39.106C32.4482 40.9188 33.9177 42.3884 35.7306 42.3884H38.0742C38.5655 44.3186 40.3035 45.6697 42.2953 45.6697C44.2871 45.6697 46.0251 44.3186 46.5164 42.3884H48.86C50.6728 42.3884 52.1424 40.9188 52.1424 39.106V38.0118C52.1366 36.6259 51.2609 35.3928 49.9541 34.9308ZM41.2012 22.6942C41.2012 22.09 41.691 21.6001 42.2953 21.6001C42.8995 21.6001 43.3894 22.09 43.3894 22.6942C43.3894 22.7248 43.3785 22.75 43.3763 22.7795C42.6601 22.6658 41.9305 22.6658 41.2143 22.7795C41.2121 22.75 41.2012 22.7248 41.2012 22.6942ZM36.8247 30.353C36.8247 27.3317 39.274 24.8824 42.2953 24.8824C45.3166 24.8824 47.7659 27.3317 47.7659 30.353V34.7295H36.8247V30.353ZM42.2953 43.4825C41.517 43.4802 40.799 43.0632 40.4112 42.3884H44.1794C43.7916 43.0632 43.0736 43.4802 42.2953 43.4825ZM49.9541 39.106C49.9541 39.7103 49.4642 40.2001 48.86 40.2001H35.7306C35.1263 40.2001 34.6365 39.7103 34.6365 39.106V38.0118C34.6365 37.4076 35.1263 36.9177 35.7306 36.9177H48.86C49.4642 36.9177 49.9541 37.4076 49.9541 38.0118V39.106Z" fill="#124E78"/>
</g>
<defs>
<clipPath id="clip0">
<rect width="62" height="65.6471" fill="white" transform="translate(4 3)"/>
</clipPath>
</defs>
</svg>
